<svg xmlns="http://www.w3.org/2000/svg" viewBox="0 0 24 24" fill="none">
  <defs>  <filter id="g" x="-60%" y="-60%" width="220%" height="220%"><feGaussianBlur stdDeviation="2.2" result="b"/><feFlood flood-color="#00D9FF" flood-opacity="0.55" result="c"/><feComposite in="c" in2="b" operator="in" result="s"/><feMerge><feMergeNode in="s"/><feMergeNode in="SourceGraphic"/></feMerge></filter>  <linearGradient id="lg" x1="0%" y1="0%" x2="100%" y2="100%"><stop offset="0%" stop-color="#00D9FF"/><stop offset="100%" stop-color="#00FF9F"/></linearGradient></defs>
  <!-- Cloud body -->
  <path d="M6 18 C3 18 1.5 16 1.5 14 C1.5 12 3 10.5 5 10.5 C5 7.5 7.5 5 10.5 5 C12.5 5 14.2 6 15.2 7.5 C15.8 7.2 16.4 7 17 7 C19.2 7 21 8.8 21 11 C21 11.2 21 11.4 20.95 11.6 C22.2 12.3 23 13.6 23 15 C23 17.2 21.2 19 19 19 H6Z" stroke="url(#lg)" stroke-width="1.3" fill="url(#lg)" fill-opacity="0.15" filter="url(#g)"/>
  <!-- Upload arrow -->
  <line x1="12" y1="22" x2="12" y2="12" stroke="url(#lg)" stroke-width="2" stroke-linecap="round" filter="url(#g)"/>
  <path d="M9 15 L12 12 L15 15" stroke="url(#lg)" stroke-width="2" stroke-linecap="round" stroke-linejoin="round" fill="none" filter="url(#g)"/>
</svg>